<svg width="1240" height="3989" viewBox="0 0 1240 3989" fill="none" xmlns="http://www.w3.org/2000/svg">
<path d="M622.5 0.5C622.5 158.1 655.5 167 622.5 207C589.5 247 446.436 442.75 463 384.5C479.564 326.25 432 165.5 427.5 275C423 384.5 489.291 261.692 528.5 267C610.073 278.043 634.256 339.986 703.5 384.5C819.217 458.89 932.056 448.998 1006 565C1067.41 661.332 1055.92 738.334 1060 852.5C1062.97 935.459 1071.88 986.133 1044.5 1064.5C1011 1160.41 954.355 1195.77 885 1270C676.958 1492.67 277.5 1615 216.5 1672.5C155.5 1730 -35.5 1554.5 9.99996 1475.5C55.5 1396.5 613 1410 627 1486C641 1562 270.5 1753.5 159 1934C47.5 2114.5 930 1888.5 826.5 1974C723 2059.5 1064.75 2064.28 1156 2187.5C1310.78 2396.52 1205 2806.5 1156 2853.5C1107 2900.5 922.762 3269.05 663.5 3375.5C508.085 3439.31 237.5 3435.5 237.5 3435.5C237.5 3435.5 319.5 3989 221 3985.5" stroke="#D8D8D8" stroke-width="5"/>
</svg>
